/* XPM */
static char *result[] = {
/* columns rows colors chars-per-pixel */
"32 32 102 2 ",
"   c #010100",
".  c #080604",
"X  c #0A0805",
"o  c #0D0D0A",
"O  c #120B02",
"+  c #1A0F03",
"@  c #100F0C",
"#  c #1E1203",
"$  c #14130F",
"%  c #161511",
"&  c #181712",
"*  c #1D1B16",
"=  c #1B1B1B",
"-  c #231404",
";  c #2E1C05",
":  c #321D05",
">  c #201F19",
",  c #3D2406",
"<  c #24231C",
"1  c #28261F",
"2  c #222222",
"3  c #2C2A22",
"4  c #2C2C2C",
"5  c #312F26",
"6  c #333027",
"7  c #363329",
"8  c #39362C",
"9  c #3D3A2E",
"0  c #313131",
"q  c #3F3C30",
"w  c #3C3C3C",
"e  c #402607",
"r  c #452907",
"t  c #4C2D08",
"y  c #573309",
"u  c #5A3509",
"i  c #633A0B",
"p  c #6A3F0B",
"a  c #403D31",
"s  c #74440C",
"d  c #78470D",
"f  c #7C4A0D",
"g  c #7D5119",
"h  c #554428",
"j  c #454235",
"k  c #4A4739",
"l  c #4D4A3B",
"z  c #514D3E",
"x  c #4C4C4C",
"c  c #565242",
"v  c #5A5545",
"b  c #5C5847",
"n  c #5F5A49",
"m  c #555555",
"M  c #585858",
"N  c #615C4A",
"B  c #67624F",
"V  c #68634F",
"C  c #6A6552",
"Z  c #6E6954",
"A  c #756F5A",
"S  c #76705A",
"D  c #78735C",
"F  c #656565",
"G  c #7E7760",
"H  c #7F7961",
"J  c #797979",
"K  c #864F0E",
"L  c #8D540F",
"P  c #94580F",
"I  c #975A10",
"U  c #9C5D11",
"Y  c #A05F11",
"T  c #A36111",
"R  c #AA6512",
"E  c #B66C13",
"W  c #BD7014",
"Q  c #C47414",
"!  c #CC7915",
"~  c #D57E16",
"^  c #827C64",
"/  c #D98117",
"(  c #E08517",
")  c #E28618",
"_  c #E78A18",
"`  c #ED8D19",
"'  c #878168",
"]  c #8B846A",
"[  c #8F886E",
"{  c #918A6F",
"}  c gray52",
"|  c #8C8C8C",
" . c #A5A5A5",
".. c gray73",
"X. c gray77",
"o. c #CCCCCC",
"O. c #DDDDDD",
"+. c gray88",
"@. c #EBEBEB",
"#. c gray95",
"$. c #FEFEFE",
"%. c None",
/* pixels */
"%.%.%.%.%.%.%.%.%.%.%.%.%.            %.%.%.%.%.%.%.%.%.%.%.%.%.",
"%.%.%.%.%.%.%.%.%.%.. 2 z Z D ^ ] ^ Z z 2   %.%.%.%.%.%.%.%.%.%.",
"%.%.%.%.%.%.%.%.X j ^ [ { { [ ' ' ] { { { ^ j . %.%.%.%.%.%.%.%.",
"%.%.%.%.%.%.  3 V l 6 * o             X & 3 j v 3   %.%.%.%.%.%.",
"%.%.%.%.%.  a < . w J  .X.O.@.@.@.O.o... .| m % o <   %.%.%.%.%.",
"%.%.%.%.  b 3 4 +.| 2 = m $.$.$.$.$.$.$.$.$.$.#.F . v   %.%.%.%.",
"%.%.%.  z { 7 2 o. .w w J $.$.$.$.$.$.$.$.$.$.+.x o { l   %.%.%.",
"%.%.%.3 { { ^     = M J  ...o.o.o.o... .| F 0     v { { 3 %.%.%.",
"%.%.X ^ { { ] . X                                 N { { ^ . %.%.",
"%.%.j { { { [ % G                                 n { { { j %.%.",
"%.  ^ { { { ] % D             - u                 N { { { ^   %.",
"%.< { { { { ^ % D             E ) #               c { { { { 1 %.",
"%.l { { { { q V D           f ` ` W .           9 a ] { { { l %.",
"  Z { { { { 8 q ] B j *   , ` _ ) ` K   X a v ^ n % { { { { C   ",
"  H { { { { ] . < 5 c 7 O / W R i u ` r & v q %   v { { { { H   ",
"  ] { { { { ] % D       U _ t   : - ~ ~ X         N { { { { '   ",
"  ] { { { { ] $ D     : ` ` U . W y O ~ s         n { { { { '   ",
"  H { { { { [ $ D     L ` ` i + Q K   Q /         N { { { { H   ",
"  C { { { { [ $ D     ! ` ` - r y . t ` ` -       N { { { { C   ",
"%.l { { { { ] % D     _ / Y   R ` s   _ ! ,       n { { { { l %.",
"%.< { { { { A * D     / ~ u   e p # + _ R ;       z { { { { < %.",
"%.  ^ { { { 5 D D     I ` ) : u s L ~ U Q     = N 6 ] { { ^   %.",
"%.%.a { { { z * Z ] C h _ ` ~ P _ ` E L K B H H 8 1 { { { q %.%.",
"%.%.. H { { [     o 3 < t _ ~ E Y f U L @ 7 &     n { { H . %.%.",
"%.%.%.3 [ { ] o q         - L W W T r             n { { 1 %.%.%.",
"%.%.%.  k { ] % D                                 b { k   %.%.%.",
"%.%.%.%.  c ] % D                                 v v   %.%.%.%.",
"%.%.%.%.%.  k z D                               < 8   %.%.%.%.%.",
"%.%.%.%.%.%.  3 A 3                         & l 1   %.%.%.%.%.%.",
"%.%.%.%.%.%.%.%.. a C k <             % 9 v q . %.%.%.%.%.%.%.%.",
"%.%.%.%.%.%.%.%.%.%.  < k B C V C B N l <   %.%.%.%.%.%.%.%.%.%.",
"%.%.%.%.%.%.%.%.%.%.%.%.%.            %.%.%.%.%.%.%.%.%.%.%.%.%."
};
