/* XPM */
static char *result[] = {
/* columns rows colors chars-per-pixel */
"16 16 114 2 ",
"   c black",
".  c #060604",
"X  c #070705",
"o  c #090501",
"O  c #090907",
"+  c #100902",
"@  c #110A02",
"#  c #12110E",
"$  c #151410",
"%  c #161511",
"&  c #181713",
"*  c #231504",
"=  c #301C05",
"-  c #341F05",
";  c #201D16",
":  c #211F19",
">  c #362006",
",  c #23211A",
"<  c #23211B",
"1  c #24221C",
"2  c #26241D",
"3  c #272724",
"4  c #2C2A22",
"5  c #2D2B23",
"6  c #2E2C23",
"7  c #2C2B26",
"8  c #2E2C24",
"9  c #2F2D24",
"0  c #2F2D26",
"q  c #302D25",
"w  c #302E25",
"e  c #343128",
"r  c #37352C",
"t  c #39362B",
"y  c #39362C",
"u  c #3B382D",
"i  c #3B392E",
"p  c #3C392E",
"a  c #3C3A2E",
"s  c #3D3A2F",
"d  c #3E3B2F",
"f  c #3E3B30",
"g  c #3F3C30",
"h  c #442807",
"j  c #452907",
"k  c #472A07",
"l  c #523109",
"z  c #533209",
"x  c #573309",
"c  c #583409",
"v  c #5B360A",
"b  c #623A0A",
"n  c #683E0B",
"m  c #4A3D27",
"M  c #453E2E",
"N  c #413E32",
"B  c #423F33",
"V  c #6B400B",
"C  c #6C400B",
"Z  c #6D400B",
"A  c #6F420C",
"S  c #444134",
"D  c #454235",
"F  c #464335",
"G  c #474436",
"H  c #484437",
"J  c #4A4639",
"K  c #4A4739",
"L  c #4B4739",
"P  c #4C493A",
"I  c #4C493B",
"U  c #4D493B",
"Y  c #4E4A3C",
"T  c #4E4B3C",
"R  c #504C3D",
"E  c #565242",
"W  c #585443",
"Q  c #595444",
"!  c #595544",
"~  c #5A5545",
"^  c #555555",
"/  c #565656",
"(  c #646464",
")  c gray42",
"_  c #7F7961",
"`  c #87500E",
"'  c #89510E",
"]  c #975A10",
"[  c #9B5C10",
"{  c #9C5D10",
"}  c #B86D13",
"|  c #BD7014",
" . c #BF7114",
".. c #C27314",
"X. c #CF7B16",
"o. c #D67F16",
"O. c #807962",
"+. c #807A62",
"@. c #DE8417",
"#. c #EF8E19",
"$. c #8D866C",
"%. c #8F886E",
"&. c #918A6F",
"*. c #848484",
"=. c #959595",
"-. c #B4B4B4",
";. c #BCBCBC",
":. c #CACACA",
">. c #D7D7D7",
",. c #E1E1E1",
"<. c gray90",
"1. c gray95",
"2. c gray96",
"3. c None",
/* pixels */
"3.3.3.3.3.% s G L f $ 3.3.3.3.3.",
"3.3.3.3.B ! P D S L E a 3.3.3.3.",
"3.3.1 0 ) / ;.2.1.,.:.=.3 , 3.3.",
"3.3.+.r ( ^ -.<.<.>.;.*.7 O.3.3.",
"3.~ &.U :               w &.! 3.",
"$ $.&.Y p     > x       6 &.$.3.",
"s &.&.H ~ & + X.@.* # t p %.&.s ",
"L &.&.I e < { Z h } ; $ 9 &.&.J ",
"K &.&.R p = #.k ] C z   w &.&.K ",
"s &.&.R p V o.j A ' `   q &.&.s ",
"3.$.&.R d v  .- b [ n X y %.$.3.",
"3.Q &.g N M ..| | [ m F 9 &.W 3.",
"3.3._ T 6   o l c @     9 _ 3.3.",
"3.3.< Y p               8 < 3.3.",
"3.3.3.3.i 5 O     . 2 4 3.3.3.3.",
"3.3.3.3.3.3.p p u u 3.3.3.3.3.3."
};
