/* XPM */
static char *result[] = {
/* columns rows colors chars-per-pixel */
"64 64 121 2 ",
"   c #000000",
".  c #0B0702",
"X  c #0B0905",
"o  c #0C0C0B",
"O  c #140C02",
"+  c #190F03",
"@  c #1C1003",
"#  c #13120F",
"$  c #191209",
"%  c #151411",
"&  c #181712",
"*  c #1B1A15",
"=  c #1D1C19",
"-  c #241504",
";  c #281704",
":  c #271805",
">  c #2B1A04",
",  c #321E05",
"<  c #201F19",
"1  c #352006",
"2  c #3B2306",
"3  c #3F290E",
"4  c #25231C",
"5  c #28261E",
"6  c #272727",
"7  c #292720",
"8  c #2D2B23",
"9  c #2B2B2B",
"0  c #312E25",
"q  c #353329",
"w  c #39362C",
"e  c #3D3A2F",
"r  c gray20",
"t  c #3F3C30",
"y  c #393939",
"u  c #442807",
"i  c #4B2C08",
"p  c #533109",
"a  c #5C360A",
"s  c #5F380A",
"d  c #653C0B",
"f  c #683E0B",
"g  c #403D31",
"h  c #6E410B",
"j  c #75450C",
"k  c #78470D",
"l  c #7C490D",
"z  c #454235",
"x  c #484537",
"c  c #494538",
"v  c #4D493B",
"b  c #524E3F",
"n  c #424242",
"m  c #534F40",
"M  c #555141",
"N  c #5A5544",
"B  c #5D5947",
"V  c #5F5B49",
"C  c gray33",
"Z  c #5C5C5C",
"A  c #615D4B",
"S  c #65604E",
"D  c #68634F",
"F  c #6A6551",
"G  c #6F6955",
"H  c #716B56",
"J  c #736E59",
"K  c #77715B",
"L  c #7B755E",
"P  c #646464",
"I  c #6C6C6C",
"U  c #7D7760",
"Y  c #7F7961",
"T  c #727272",
"R  c #7D7D7D",
"E  c #834E0E",
"W  c #87500E",
"Q  c #8D530F",
"!  c #91570F",
"~  c #94580F",
"^  c #8C5410",
"/  c #975A10",
"(  c #9C5D10",
")  c #A15F11",
"_  c #A56211",
"`  c #AB6512",
"'  c #B26A13",
"]  c #BA6F14",
"[  c #BD7014",
"{  c #C57515",
"}  c #CC7915",
"|  c #D37D16",
" . c #827C64",
".. c #D78017",
"X. c #DC8317",
"o. c #E08517",
"O. c #E28618",
"+. c #E68818",
"@. c #EF8E19",
"#. c #878067",
"$. c #878168",
"%. c #8A836A",
"&. c #8F886E",
"*. c #918A6F",
"=. c #838383",
"-. c #8C8C8C",
";. c #969696",
":. c #9D9D9D",
">. c #A3A3A3",
",. c #ACACAC",
"<. c #B7B7B7",
"1. c #B9B9B9",
"2. c #C4C4C4",
"3. c #CBCBCB",
"4. c #D6D6D6",
"5. c #DCDCDC",
"6. c #E4E4E4",
"7. c #EDEDED",
"8. c #F4F4F4",
"9. c #FEFEFE",
"0. c None",
/* pixels */
"0.0.0.0.0.0.0.0.0.0.0.0.0.0.0.0.0.0.0.0.0.0.0.0.0.0.0.0.0.            0.0.0.0.0.0.0.0.0.0.0.0.0.0.0.0.0.0.0.0.0.0.0.0.0.0.0.0.0.",
"0.0.0.0.0.0.0.0.0.0.0.0.0.0.0.0.0.0.0.0.0.0.0.                                    0.0.0.0.0.0.0.0.0.0.0.0.0.0.0.0.0.0.0.0.0.0.0.",
"0.0.0.0.0.0.0.0.0.0.0.0.0.0.0.0.0.0.0.0.          4 e v N F H L  .Y L F M g 4           0.0.0.0.0.0.0.0.0.0.0.0.0.0.0.0.0.0.0.0.",
"0.0.0.0.0.0.0.0.0.0.0.0.0.0.0.0.0.0.      o e S &.*.*.*.*.*.*.*.*.*.*.*.*.*.*.%.D w X       0.0.0.0.0.0.0.0.0.0.0.0.0.0.0.0.0.0.",
"0.0.0.0.0.0.0.0.0.0.0.0.0.0.0.0.      = V &.*.*.*.*.*.*.*.*.*.*.*.*.*.*.*.*.*.*.*.*.%.V *       0.0.0.0.0.0.0.0.0.0.0.0.0.0.0.0.",
"0.0.0.0.0.0.0.0.0.0.0.0.0.0.0.    * S *.*.*.*.*.*.*.*.*.%. . .Y Y Y  . .%.*.*.*.*.*.*.*.*.S *     0.0.0.0.0.0.0.0.0.0.0.0.0.0.0.",
"0.0.0.0.0.0.0.0.0.0.0.0.0.    X M *.*.&.H N z 0 < # X                       o * 7 w v A Y *.&.N X     0.0.0.0.0.0.0.0.0.0.0.0.0.",
"0.0.0.0.0.0.0.0.0.0.0.0.    5  .H z =                                                     X 7 N K 7     0.0.0.0.0.0.0.0.0.0.0.0.",
"0.0.0.0.0.0.0.0.0.0.0.    c D =           # y Z R ;.,.2.3.5.6.6.5.4.3.1.,.;.=.I C n 6 X           q t     0.0.0.0.0.0.0.0.0.0.0.",
"0.0.0.0.0.0.0.0.0.0.  X A v       # Z :.5.9.9.9.9.9.9.9.9.9.9.9.9.9.9.9.9.9.9.9.9.9.9.8.2.=.y       o c X   0.0.0.0.0.0.0.0.0.0.",
"0.0.0.0.0.0.0.0.0.  X F J     o -.8.9.,.C 9 9 y T 5.9.9.9.9.9.9.9.9.9.9.9.9.9.9.9.9.9.9.9.9.9.4.C     * F X   0.0.0.0.0.0.0.0.0.",
"0.0.0.0.0.0.0.0.  X F &.c     >.9.9.=.            o 7.9.9.9.9.9.9.9.9.9.9.9.9.9.9.9.9.9.9.9.9.9.9.n     Y F X   0.0.0.0.0.0.0.0.",
"0.0.0.0.0.0.0.    A *.*.v     -.9.9.,.X           r 8.9.9.9.9.9.9.9.9.9.9.9.9.9.9.9.9.9.9.9.9.9.7.6     %.&.V     0.0.0.0.0.0.0.",
"0.0.0.0.0.0.    c *.*.*. .X     I 2.9.6.;.I P R 1.9.9.9.9.9.9.9.9.9.9.9.9.9.9.9.9.9.9.9.9.9.7.;.=     0 *.*.*.c     0.0.0.0.0.0.",
"0.0.0.0.0.0.  5 *.*.*.*.&.F         * Z ;.3.8.9.9.9.9.9.9.9.9.9.9.9.9.9.9.9.9.9.9.9.6.<.=.n X       * %.*.*.*.&.7   0.0.0.0.0.0.",
"0.0.0.0.0.  X  .*.*.*.*.*.%.                  * y C I R -.;.:.>.>.:.:.-.R I Z n 9 o                 0 &.*.*.*.*.Y X   0.0.0.0.0.",
"0.0.0.0.    M *.*.*.*.*.*.%.                                                                        0 *.*.*.*.*.*.M     0.0.0.0.",
"0.0.0.0.  * *.*.*.*.*.*.*.%.  # 4 X                                                                 0 *.*.*.*.*.*.&.&   0.0.0.0.",
"0.0.0.    A *.*.*.*.*.*.*.%.  5 &.V                                                                 0 *.*.*.*.*.*.*.A     0.0.0.",
"0.0.0.  * *.*.*.*.*.*.*.*.%.  5 &.V                                                                 8 *.*.*.*.*.*.*.*.*   0.0.0.",
"0.0.0.  N *.*.*.*.*.*.*.*.%.  5 *.V                           . a                                   8 *.*.*.*.*.*.*.&.N   0.0.0.",
"0.0.  X %.*.*.*.*.*.*.*.*.$.  5 *.V                           l +.-                                 0 *.*.*.*.*.*.*.*.%.X   0.0.",
"0.0.  q *.*.*.*.*.*.*.*.*. .  5 *.V                         , @.@.]                                 8 *.*.*.*.*.*.*.*.*.q   0.0.",
"0.0.  A *.*.*.*.*.*.*.*.*.A X 5 *.V                       . } @.@.@.l                               q F *.*.*.*.*.*.*.*.A   0.0.",
"0.    %.*.*.*.*.*.*.*.*.F w A 8 *.V                       ~ @.@.@.@.+.2                           *  .% *.*.*.*.*.*.*.*.$.    0.",
"0.  = *.*.*.*.*.*.*.*.*.z # &. .*.V                     s @.@.@.@.@.@.X.+                     X z %.F    .*.*.*.*.*.*.*.*.*   0.",
"0.  e *.*.*.*.*.*.*.*.*.M   e &.*.#.b 7 X             > @.@.@.@.@.@.@.@.'               % w A %.*. .%   %.&.*.*.*.*.*.*.*.w   0.",
"0.  m *.*.*.*.*.*.*.*.*.%.o   5 K *.*.*.&.U D X     . } @.@.@.| ] @.@.@.@.j       7 G #.*.*.*.*.B o   t *.*.*.*.*.*.*.*.*.m   0.",
"0.  D &.*.*.*.*.*.*.*.*.*.K       4 b K *.*.*.X     / @.@.@.@.!   ` / E @.+.2     g *.&.%.G z #     < &.*.*.*.*.*.*.*.*.*.A   0.",
"    K *.*.*.*.*.*.*.*.*.*.%.  4 b *     X 5 w X   p @.@.k ) | p . O.2 O @.@.| .   = q *             8 *.*.*.*.*.*.*.*.*.*.J     ",
"    Y *.*.*.*.*.*.*.*.*.*.%.  5 *.V             O X.@.|       . + _ . p @.@.@.!                     8 *.*.*.*.*.*.*.*.*.*.U     ",
"     .*.*.*.*.*.*.*.*.*.*.%.  5 *.A             ! @.@.@.{ s           - Q @.@.@.1                   0 *.*.*.*.*.*.*.*.*.*. .    ",
"     .*.*.*.*.*.*.*.*.*.&.%.  5 *.V           > @.@.@.@.@.f     / E >     u +.@.'                   8 *.*.*.*.*.*.*.*.*.*. .    ",
"    Y *.*.*.*.*.*.*.*.*.*.%.  5 *.V           / @.@.@.@.@.,   . @.@.@.u     ( @.@.2                 8 *.*.*.*.*.*.*.*.*.*.Y     ",
"    J *.*.*.*.*.*.*.*.*.*.$.  5 *.V         . +.@.@.@.@.| .   u @.@.@.k     E @.@.(                 0 *.*.*.*.*.*.*.*.*.*.H     ",
"0.  A *.*.*.*.*.*.*.*.*.*.%.  5 *.V         a @.@.@.@.@.)     - l ` ~ +     ] @.@.o.                8 *.*.*.*.*.*.*.*.*.*.S   0.",
"0.  M *.*.*.*.*.*.*.*.*.*.$.  5 *.V         ! @.@.@.@.@.d     +         . W @.@.@.@.1               8 *.*.*.*.*.*.*.*.*.*.b   0.",
"0.  w *.*.*.*.*.*.*.*.*.&.%.  5 *.V         [ @.@.@.@.@.>   . @.| Q @   . ) @.@.+.@.s               8 *.*.*.*.*.*.*.*.*.*.w   0.",
"0.  * *.*.*.*.*.*.*.*.*.*.$.  5 *.V         | @.@.@.@.o.    i @.@.@.}     O +.@.[ @.k               8 *.*.*.*.*.*.*.*.*.*.*   0.",
"0.    #.*.*.*.*.*.*.*.*.*.$.  5 *.V         | @.@.) p d     W @.@.@.@.      { @./ @.l               8 *.*.*.*.*.*.*.*.*.#.    0.",
"0.0.  V *.*.*.*.*.*.*.*.*.Y   5 *.V         } @.@.h         i _ | | j       o.@.j @.h               7 &.*.*.*.*.*.*.*.*.V   0.0.",
"0.0.  0 *.*.*.*.*.*.*.*. .z 5 5 *.V         ` @.@.@.| / @                 s @.+.a @.i               V q *.*.*.*.*.*.*.*.8   0.0.",
"0.0.  X %.*.*.*.*.*.*.*.v 7 %.N *.V         h @.@.@.@.@.. u ]   - > @ > k +.@.W ! +.O           X V  .  #.*.*.*.*.*.*.$.X   0.0.",
"0.0.0.  M *.*.*.*.*.*.*.c X J &.*.G X       + +.@.@.@.{   E _   / @.@.@.@.@.| : +.`         = m %.*.t    .*.*.*.*.*.*.M   0.0.0.",
"0.0.0.  % *.*.*.*.*.*.*.G   o F *.&.&.K M w < Q @.@.@.+.` | E   X.@.@.@.@.o., ) @.3 7 z A  .*.*.&.g   % *.*.*.*.*.*.&.%   0.0.0.",
"0.0.0.    V *.*.*.*.*.*.*.z     7 D &.*.*.*.*.$ | @.@.@.@.@.@.O.@.@.@.@.| , l @.W g *.*.*.*. .b #   X J *.*.*.*.*.*.V     0.0.0.",
"0.0.0.0.  % &.*.*.*.*.*.*.%.        X 8 v F  .X > X.@.@.@.@.@.@.@.@.X.l + ! @.`   t K A g =         0 *.*.*.*.*.*.&.%   0.0.0.0.",
"0.0.0.0.    v *.*.*.*.*.*.%.                      > | @.} _ l l d 2 > j | @./                       8 *.*.*.*.*.*.c     0.0.0.0.",
"0.0.0.0.0.  X L &.*.*.*.*.$.  # *                   . E O.@.@.| } X.@.@.{ i                         8 *.*.*.*.*.U X   0.0.0.0.0.",
"0.0.0.0.0.0.  4 &.*.*.*.*.$.  5 *.b                     . p Q _ ` ) k 1                             8 *.*.*.*.&.=   0.0.0.0.0.0.",
"0.0.0.0.0.0.    t *.*.*.*.#.  5 *.V                                                                 7 *.*.*.*.g     0.0.0.0.0.0.",
"0.0.0.0.0.0.0.    N *.*.*. .  5 *.A                                                                 7 *.*.*.N     0.0.0.0.0.0.0.",
"0.0.0.0.0.0.0.0.  X S *.*. .  5 *.B                                                                 5 *.*.A     0.0.0.0.0.0.0.0.",
"0.0.0.0.0.0.0.0.0.    S *. .  5 *.A                                                                 4 *.A X   0.0.0.0.0.0.0.0.0.",
"0.0.0.0.0.0.0.0.0.0.    N %.4 5 *.V                                                                 b N     0.0.0.0.0.0.0.0.0.0.",
"0.0.0.0.0.0.0.0.0.0.0.    t &.G *.A                                                             * J t     0.0.0.0.0.0.0.0.0.0.0.",
"0.0.0.0.0.0.0.0.0.0.0.0.    < L &.F                                                         X M K 4     0.0.0.0.0.0.0.0.0.0.0.0.",
"0.0.0.0.0.0.0.0.0.0.0.0.0.    X v &.K q                                                 o b %.v X     0.0.0.0.0.0.0.0.0.0.0.0.0.",
"0.0.0.0.0.0.0.0.0.0.0.0.0.0.0.    % B *. .c *                                     X 8 A &.B %     0.0.0.0.0.0.0.0.0.0.0.0.0.0.0.",
"0.0.0.0.0.0.0.0.0.0.0.0.0.0.0.0.      % M %.*.L b 8 #                     X * e A %.$.m #       0.0.0.0.0.0.0.0.0.0.0.0.0.0.0.0.",
"0.0.0.0.0.0.0.0.0.0.0.0.0.0.0.0.0.0.      X 8 V  .*.*.%.K S N m m M V F L *.*. .B 8 X       0.0.0.0.0.0.0.0.0.0.0.0.0.0.0.0.0.0.",
"0.0.0.0.0.0.0.0.0.0.0.0.0.0.0.0.0.0.0.0.0.        * q v A H K U U K H A v q *         0.0.0.0.0.0.0.0.0.0.0.0.0.0.0.0.0.0.0.0.0.",
"0.0.0.0.0.0.0.0.0.0.0.0.0.0.0.0.0.0.0.0.0.0.0.0.                                0.0.0.0.0.0.0.0.0.0.0.0.0.0.0.0.0.0.0.0.0.0.0.0.",
"0.0.0.0.0.0.0.0.0.0.0.0.0.0.0.0.0.0.0.0.0.0.0.0.0.0.0.0.0.            0.0.0.0.0.0.0.0.0.0.0.0.0.0.0.0.0.0.0.0.0.0.0.0.0.0.0.0.0."
};
