<?xml version="1.0" standalone="no"?>
<!DOCTYPE svg PUBLIC "-//W3C//DTD SVG 20010904//EN"
 "http://www.w3.org/TR/2001/REC-SVG-20010904/DTD/svg10.dtd">
<svg version="1.0" xmlns="http://www.w3.org/2000/svg"
 width="1562.000000pt" height="1704.000000pt" viewBox="0 0 1562.000000 1704.000000"
 preserveAspectRatio="xMidYMid meet">
<metadata>
Created by potrace 1.16, written by Peter Selinger 2001-2019
</metadata>
<g transform="translate(0.000000,1704.000000) scale(0.100000,-0.100000)"
fill="#000000" stroke="none">
<path d="M7585 16383 c-1117 -17 -2282 -311 -3300 -832 -1093 -560 -1998
-1322 -2735 -2303 -707 -941 -1205 -2073 -1419 -3223 -24 -129 -74 -521 -96
-750 -52 -555 -48 -1045 15 -1592 102 -896 364 -1781 762 -2578 304 -606 674
-1158 1131 -1685 152 -174 570 -587 767 -756 617 -528 1227 -913 1965 -1239
754 -334 1495 -531 2305 -614 358 -37 483 -44 820 -44 517 0 983 42 1465 134
1374 263 2632 878 3700 1810 257 224 629 610 878 911 618 746 1119 1663 1405
2573 190 604 277 1031 343 1705 20 193 23 287 23 655 1 510 -18 776 -85 1215
-161 1049 -526 2032 -1092 2940 -676 1085 -1627 2002 -2737 2642 -532 306
-1093 548 -1655 713 -701 206 -1264 294 -1970 310 -121 3 -249 6 -285 8 -36 1
-128 1 -205 0z m1025 -467 c956 -111 1870 -396 2695 -843 949 -515 1773 -1229
2420 -2098 860 -1155 1354 -2501 1446 -3942 15 -244 6 -924 -15 -1133 -49
-481 -109 -811 -222 -1230 -368 -1360 -1113 -2583 -2149 -3529 -453 -414
-1000 -805 -1475 -1055 -713 -374 -1367 -608 -2110 -755 -839 -166 -1821 -171
-2695 -15 -1587 284 -3065 1104 -4149 2304 -928 1026 -1530 2227 -1795 3580
-105 540 -151 1196 -121 1740 75 1362 493 2618 1242 3739 601 899 1429 1684
2368 2245 159 95 659 350 865 441 395 175 923 342 1360 430 214 43 788 103
1285 134 221 14 888 6 1050 -13z"/>
<path d="M7070 15013 c-1019 -46 -1772 -133 -2442 -283 -648 -145 -1042 -307
-1330 -547 -233 -194 -358 -515 -305 -784 36 -180 114 -318 260 -455 l92 -86
2 -1108 1 -1108 43 -64 c57 -85 214 -239 306 -299 42 -27 82 -49 89 -49 12 0
14 153 14 961 0 765 3 960 13 956 93 -42 156 -62 289 -93 l158 -38 0 -1002 c0
-945 1 -1004 18 -1012 29 -15 280 -89 427 -126 238 -59 664 -141 838 -162 l57
-6 0 -258 0 -258 -42 5 c-316 38 -908 168 -1206 264 -476 155 -787 356 -960
622 -95 147 -127 276 -119 471 4 72 9 146 13 164 5 28 4 31 -11 26 -33 -13
-156 -170 -201 -256 -103 -200 -118 -412 -45 -624 41 -119 110 -225 212 -325
48 -48 92 -97 99 -109 9 -18 11 -372 9 -1559 l-4 -1537 44 -67 c71 -110 304
-318 394 -353 16 -6 17 112 17 1679 l0 1686 58 -26 c112 -50 328 -132 365
-138 l37 -7 0 -1703 c0 -1501 2 -1705 15 -1719 18 -18 53 -28 355 -105 261
-66 560 -128 780 -161 80 -12 155 -24 168 -26 l22 -4 0 -255 0 -255 -22 0
c-41 0 -479 79 -668 120 -536 116 -908 255 -1195 445 -105 69 -264 224 -320
309 -46 71 -91 184 -111 275 -17 83 -18 257 0 339 16 77 7 79 -56 15 -220
-230 -291 -496 -213 -798 35 -131 158 -320 258 -394 41 -29 56 -49 65 -80 10
-32 11 -260 6 -1035 -6 -807 -5 -1000 6 -1026 8 -20 28 -39 54 -52 23 -11 78
-47 123 -80 96 -68 252 -168 265 -168 4 0 8 394 8 875 0 481 3 875 8 875 4 0
16 -6 27 -14 31 -21 266 -123 347 -150 l73 -25 3 -919 c2 -773 4 -921 16 -931
39 -32 515 -259 741 -353 265 -110 665 -243 970 -323 308 -81 839 -172 1235
-212 223 -22 1043 -26 1265 -5 904 84 1665 277 2450 620 444 194 733 351 1181
644 87 57 183 119 211 137 29 18 67 49 84 69 l31 36 -6 740 c-3 408 -9 868
-12 1023 l-6 282 28 23 c146 117 277 311 319 473 25 95 23 302 -4 400 -25 88
-77 198 -126 265 -38 51 -152 166 -158 159 -3 -2 1 -38 9 -79 40 -227 -4 -450
-124 -627 -49 -72 -181 -198 -288 -275 -277 -199 -769 -374 -1379 -492 -189
-37 -476 -86 -502 -86 l-23 0 0 254 0 255 48 7 c26 3 158 26 293 50 573 101
990 221 1314 379 173 84 297 167 407 273 111 106 173 192 188 256 7 33 10 519
10 1566 l-1 1519 82 78 c203 194 298 438 269 693 -21 185 -87 325 -218 462
-41 43 -78 78 -82 78 -4 0 -1 -33 6 -72 20 -113 18 -271 -6 -363 -67 -262
-274 -489 -620 -678 -177 -98 -453 -198 -730 -266 -135 -33 -750 -151 -917
-175 l-43 -6 0 257 0 258 183 29 c356 56 722 137 995 220 432 132 693 269 902
476 101 101 160 183 170 240 4 23 5 523 2 1111 l-5 1069 29 22 c54 42 145 143
198 223 106 158 141 285 134 489 -4 113 -9 143 -35 219 -45 129 -86 190 -208
313 -218 219 -482 357 -970 507 -503 155 -1410 298 -2265 357 -497 34 -718 40
-1435 38 -401 -1 -759 -3 -795 -5z m985 -553 c627 -25 2185 -144 2430 -186
385 -66 822 -178 1060 -271 126 -49 314 -146 384 -198 150 -110 205 -250 145
-367 -111 -217 -538 -410 -1254 -567 -505 -110 -974 -165 -1975 -233 -287 -19
-416 -22 -990 -22 -757 -1 -1067 13 -1695 75 -752 74 -1291 176 -1845 350
-232 72 -376 126 -432 160 -97 60 -213 247 -213 343 1 102 66 190 215 289 175
116 335 183 634 268 605 172 1332 281 2266 339 471 30 864 36 1270 20z m-130
-3047 c19 -27 45 -68 57 -92 13 -25 29 -52 36 -60 7 -9 71 -104 141 -211 151
-230 342 -494 660 -914 127 -168 231 -312 231 -320 0 -9 6 -16 13 -16 6 0 50
-53 97 -117 47 -64 131 -180 188 -257 384 -523 685 -1054 839 -1476 157 -432
241 -952 214 -1337 -19 -281 -83 -591 -166 -803 -86 -219 -224 -459 -375 -652
-94 -120 -328 -351 -453 -447 -298 -229 -644 -387 -1016 -465 -166 -35 -284
-46 -495 -46 -316 0 -514 31 -797 123 -382 126 -624 271 -931 558 -222 208
-401 451 -538 734 -95 195 -142 320 -186 491 -47 186 -64 312 -71 529 -25 793
188 1476 723 2319 128 203 324 476 648 906 477 633 579 770 686 923 56 81 106
147 111 147 5 0 9 6 9 14 0 7 42 76 93 152 51 76 124 190 162 252 38 61 73
112 77 112 4 0 23 -21 43 -47z"/>
<path d="M5110 13946 c-319 -46 -563 -164 -636 -307 -50 -101 -20 -209 83
-298 94 -81 307 -166 518 -208 128 -25 476 -25 633 0 288 46 530 153 612 272
35 51 55 128 46 177 -15 79 -115 182 -238 244 -70 35 -216 83 -327 106 -126
26 -545 34 -691 14z"/>
<path d="M7751 9623 c-14 -50 -116 -464 -131 -529 l-11 -52 -167 44 c-291 78
-524 134 -551 134 -26 0 -28 -5 -69 -159 -23 -88 -45 -179 -48 -203 l-6 -43
184 -48 c100 -26 206 -52 235 -58 l52 -10 -14 -47 c-21 -70 -474 -1863 -489
-1933 l-6 -26 -217 53 c-120 30 -228 54 -240 54 -25 0 -29 -9 -77 -205 -52
-214 -55 -195 36 -221 42 -11 207 -54 367 -95 237 -60 290 -77 285 -89 -11
-29 -132 -515 -138 -557 l-6 -42 77 -25 c138 -43 282 -72 301 -60 12 8 37 91
84 275 37 145 67 274 68 286 0 12 4 24 8 27 5 3 69 -10 143 -28 118 -28 134
-34 131 -51 -2 -10 -30 -121 -62 -245 -56 -215 -85 -348 -78 -355 19 -19 374
-102 386 -90 3 2 38 138 78 301 41 163 75 298 76 299 2 2 50 -7 108 -18 88
-17 144 -21 350 -21 235 0 249 1 344 27 118 32 267 102 316 149 83 80 134 147
175 232 64 133 86 219 92 366 5 107 2 138 -16 210 -24 94 -64 187 -112 256
-40 59 -140 156 -196 192 -24 15 -43 29 -42 32 0 3 42 25 92 49 73 35 106 59
163 116 132 133 190 303 182 527 -7 189 -51 289 -188 429 -115 117 -266 206
-440 259 -41 12 -82 25 -91 29 -15 5 -8 38 52 266 38 143 70 282 72 309 l2 50
-146 42 c-80 23 -166 45 -191 49 -55 8 -42 42 -133 -330 -37 -148 -68 -271
-70 -273 -1 -2 -47 8 -101 21 -55 14 -116 28 -137 32 -30 5 -37 10 -33 23 22
67 138 536 143 572 l5 45 -179 43 c-98 24 -186 46 -195 48 -13 4 -19 -4 -27
-33z m394 -1158 c284 -75 428 -163 497 -303 31 -62 33 -74 33 -167 0 -92 -2
-104 -29 -153 -38 -67 -83 -107 -164 -144 -160 -72 -338 -61 -678 43 l-101 31
19 87 c27 122 159 644 165 655 8 13 71 1 258 -49z m-470 -1100 c163 -38 480
-126 549 -153 101 -40 164 -81 231 -153 75 -82 98 -156 93 -301 -2 -86 -7
-112 -29 -159 -56 -119 -152 -187 -303 -216 -156 -30 -342 -5 -679 89 l-149
41 7 45 c4 25 36 160 72 301 35 141 78 310 94 376 32 132 36 145 43 145 3 0
35 -7 71 -15z"/>
<path d="M9947 7038 c-14 -373 -89 -682 -237 -983 -344 -698 -961 -1158 -1715
-1280 -135 -22 -533 -31 -662 -15 -137 16 -270 46 -392 87 -69 23 -107 31
-114 24 -15 -15 231 -130 393 -185 247 -83 448 -111 729 -103 337 9 601 76
901 228 336 170 598 405 816 730 246 368 367 800 350 1259 -7 216 -34 410 -55
410 -5 0 -11 -78 -14 -172z"/>
<path d="M14205 120 l-76 -89 30 -16 c17 -8 35 -15 41 -15 13 0 210 168 210
179 0 7 -88 31 -115 31 -8 0 -48 -40 -90 -90z"/>
</g>
</svg>
